<?xml version="1.0" standalone="no"?><!DOCTYPE svg PUBLIC "-//W3C//DTD SVG 1.1//EN" "http://www.w3.org/Graphics/SVG/1.1/DTD/svg11.dtd"><svg t="1684292637936" class="icon" viewBox="0 0 1024 1024" version="1.1" xmlns="http://www.w3.org/2000/svg" p-id="3300" xmlns:xlink="http://www.w3.org/1999/xlink" width="128" height="128"><path d="M374.857143 1009.371429c-14.628571 0-25.6-9.142857-29.257143-21.942858L78.628571 98.742857c-3.657143-12.8 0-25.6 10.971429-34.742857 9.142857-7.314286 21.942857-9.142857 34.742857-1.828571l813.714286 446.171428c12.8 7.314286 18.285714 21.942857 14.628571 34.742857l-69.485714 259.657143c-3.657143 12.8-14.628571 21.942857-29.257143 23.771429l-62.171428 1.828571c-7.314286 0-14.628571-1.828571-21.942858-7.314286L544.914286 627.2l140.8 261.485714c3.657143 7.314286 5.485714 14.628571 3.657143 21.942857l-14.628572 60.342858c-3.657143 12.8-14.628571 23.771429-29.257143 23.771428l-270.628571 14.628572c1.828571 0 0 0 0 0zM117.028571 98.742857l261.485715 872.228572 259.657143-12.8 12.8-53.028572L499.2 621.714286c-7.314286-12.8-3.657143-29.257143 7.314286-38.4 10.971429-9.142857 27.428571-9.142857 40.228571 0l246.857143 208.457143 54.857143-1.828572L914.285714 539.428571 117.028571 98.742857z m678.4 693.028572z m124.342858-252.342858z" fill="#231815" p-id="3301"></path></svg>